<?xml version="1.0" encoding="UTF-8"?>
<svg xmlns="http://www.w3.org/2000/svg" width="1120" height="760" viewBox="0 0 1120 760" font-family="Helvetica, Arial, sans-serif">
  <defs>
    <marker id="ar" markerWidth="10" markerHeight="10" refX="8" refY="3" orient="auto" markerUnits="strokeWidth">
      <path d="M0,0 L8,3 L0,6 Z" fill="#555"/>
    </marker>
  </defs>

  <text x="560" y="38" text-anchor="middle" font-size="25" font-weight="bold" fill="#222">
    Data Lake Partitioning - Customer Data (Hive-style folders)
  </text>
  <text x="560" y="63" text-anchor="middle" font-size="15" fill="#666">
    partitionBy(Profession, Spending_Score)  ->  folder tree that enables partition pruning
  </text>

  <!-- ===== LEFT: folder tree ===== -->
  <rect x="40" y="90" width="470" height="620" rx="10" fill="#fafafa" stroke="#ccc" stroke-width="1.5"/>
  <text x="60" y="118" font-size="16" font-weight="bold" fill="#333">Partition folder structure on storage</text>

  <text x="60"  y="150" font-size="14" font-family="monospace" fill="#333">customers/</text>

  <text x="80"  y="176" font-size="14" font-family="monospace" fill="#1565c0">Profession=Artist/</text>
  <text x="110" y="200" font-size="13" font-family="monospace" fill="#2e7d32">Spending_Score=Low/    part-*.parquet</text>
  <text x="110" y="222" font-size="13" font-family="monospace" fill="#555">Spending_Score=Average/ part-*.parquet</text>
  <text x="110" y="244" font-size="13" font-family="monospace" fill="#555">Spending_Score=High/   part-*.parquet</text>

  <text x="80"  y="276" font-size="14" font-family="monospace" fill="#1565c0">Profession=Doctor/</text>
  <text x="110" y="300" font-size="13" font-family="monospace" fill="#555">Spending_Score=Low/    part-*.parquet</text>
  <text x="110" y="322" font-size="13" font-family="monospace" fill="#555">Spending_Score=Average/ part-*.parquet</text>
  <text x="110" y="344" font-size="13" font-family="monospace" fill="#555">Spending_Score=High/   part-*.parquet</text>

  <text x="80"  y="376" font-size="14" font-family="monospace" fill="#1565c0">Profession=Engineer/</text>
  <text x="110" y="400" font-size="13" font-family="monospace" fill="#555">Spending_Score=Low/    ...</text>
  <text x="110" y="422" font-size="13" font-family="monospace" fill="#555">Spending_Score=Average/ ...</text>
  <text x="110" y="444" font-size="13" font-family="monospace" fill="#555">Spending_Score=High/   ...</text>

  <text x="80"  y="476" font-size="14" font-family="monospace" fill="#999">... (10 professions x 3 scores)</text>
  <text x="80"  y="500" font-size="14" font-family="monospace" fill="#999">= 30 leaf partitions</text>

  <text x="60" y="560" font-size="13" fill="#444">Each partition column value becomes a directory. A query</text>
  <text x="60" y="580" font-size="13" fill="#444">filtering on Profession / Spending_Score reads only the</text>
  <text x="60" y="600" font-size="13" fill="#444">matching directories - the rest is skipped (data pruning).</text>

  <text x="60" y="636" font-size="13" fill="#444">The same layout is portable to S3:</text>
  <text x="60" y="656" font-size="13" font-family="monospace" fill="#0d47a1">s3://lake/customers/Profession=Artist/Spending_Score=Low/</text>

  <!-- ===== RIGHT TOP: selective query pruning ===== -->
  <rect x="540" y="90" width="550" height="300" rx="10" fill="#ffffff" stroke="#ddd" stroke-width="1.5"/>
  <text x="560" y="118" font-size="16" font-weight="bold" fill="#333">Selective query -> partition pruning</text>
  <text x="560" y="142" font-size="13" font-family="monospace" fill="#333">WHERE Profession='Artist' AND Spending_Score='Low'</text>

  <!-- grid of 30 partitions, 1 highlighted -->
  <g>
    <!-- 6 cols x 5 rows = 30 -->
    <!-- generate with explicit rects; highlight first one -->
    <rect x="560" y="170" width="70" height="34" rx="4" fill="#c8e6c9" stroke="#2e7d32" stroke-width="2"/>
    <text x="595" y="192" text-anchor="middle" font-size="10" fill="#1b5e20">READ</text>
  </g>
  <!-- remaining 29 skipped -->
  <g fill="#eeeeee" stroke="#bbb">
    <rect x="640" y="170" width="70" height="34" rx="4"/>
    <rect x="720" y="170" width="70" height="34" rx="4"/>
    <rect x="800" y="170" width="70" height="34" rx="4"/>
    <rect x="880" y="170" width="70" height="34" rx="4"/>
    <rect x="960" y="170" width="70" height="34" rx="4"/>
    <rect x="560" y="214" width="70" height="34" rx="4"/>
    <rect x="640" y="214" width="70" height="34" rx="4"/>
    <rect x="720" y="214" width="70" height="34" rx="4"/>
    <rect x="800" y="214" width="70" height="34" rx="4"/>
    <rect x="880" y="214" width="70" height="34" rx="4"/>
    <rect x="960" y="214" width="70" height="34" rx="4"/>
    <rect x="560" y="258" width="70" height="34" rx="4"/>
    <rect x="640" y="258" width="70" height="34" rx="4"/>
    <rect x="720" y="258" width="70" height="34" rx="4"/>
    <rect x="800" y="258" width="70" height="34" rx="4"/>
    <rect x="880" y="258" width="70" height="34" rx="4"/>
    <rect x="960" y="258" width="70" height="34" rx="4"/>
    <rect x="560" y="302" width="70" height="34" rx="4"/>
    <rect x="640" y="302" width="70" height="34" rx="4"/>
    <rect x="720" y="302" width="70" height="34" rx="4"/>
    <rect x="800" y="302" width="70" height="34" rx="4"/>
    <rect x="880" y="302" width="70" height="34" rx="4"/>
    <rect x="960" y="302" width="70" height="34" rx="4"/>
    <rect x="560" y="346" width="70" height="34" rx="4"/>
    <rect x="640" y="346" width="70" height="34" rx="4"/>
    <rect x="720" y="346" width="70" height="34" rx="4"/>
    <rect x="800" y="346" width="70" height="34" rx="4"/>
    <rect x="880" y="346" width="70" height="34" rx="4"/>
    <rect x="960" y="346" width="70" height="34" rx="4"/>
  </g>
  <text x="815" y="192" text-anchor="middle" font-size="11" fill="#999">29 partitions skipped</text>

  <!-- ===== RIGHT BOTTOM: benchmark summary ===== -->
  <rect x="540" y="410" width="550" height="300" rx="10" fill="#ffffff" stroke="#ddd" stroke-width="1.5"/>
  <text x="560" y="438" font-size="16" font-weight="bold" fill="#333">Benchmark (representative, ~3.2M rows)</text>

  <text x="560" y="470" font-size="13" fill="#444">Primary metric = partitions scanned (deterministic).</text>

  <!-- table -->
  <line x1="560" y1="486" x2="1070" y2="486" stroke="#ccc"/>
  <text x="560" y="506" font-size="13" font-weight="bold" fill="#333">Scenario</text>
  <text x="880" y="506" font-size="13" font-weight="bold" fill="#333">Scanned</text>
  <text x="985" y="506" font-size="13" font-weight="bold" fill="#333">Speedup</text>
  <line x1="560" y1="514" x2="1070" y2="514" stroke="#eee"/>

  <text x="560" y="538" font-size="13" fill="#444">selective (=Artist, Low)</text>
  <text x="880" y="538" font-size="13" fill="#2e7d32">1 / 30</text>
  <text x="985" y="538" font-size="13" fill="#2e7d32">~1.2x</text>

  <text x="560" y="566" font-size="13" fill="#444">range (3 professions)</text>
  <text x="880" y="566" font-size="13" fill="#2e7d32">9 / 30</text>
  <text x="985" y="566" font-size="13" fill="#2e7d32">~1.1x</text>

  <text x="560" y="594" font-size="13" fill="#444">aggregation (group by)</text>
  <text x="880" y="594" font-size="13" fill="#b71c1c">30 / 30</text>
  <text x="985" y="594" font-size="13" fill="#b71c1c">~0.6x</text>

  <line x1="560" y1="610" x2="1070" y2="610" stroke="#eee"/>
  <text x="560" y="636" font-size="12" fill="#666">Selective/range prune partitions -> read less data.</text>
  <text x="560" y="656" font-size="12" fill="#666">Full aggregation reads all partitions and pays a small</text>
  <text x="560" y="676" font-size="12" fill="#666">file-count overhead: the documented trade-off.</text>
  <text x="560" y="698" font-size="12" fill="#666">Ingestion: partitioned write ~3.5s vs ~1.2s unpartitioned.</text>
</svg>
